<?xml version="1.0" encoding="UTF-8" ?>
<!DOCTYPE svg PUBLIC "-//W3C//DTD SVG 1.1//EN" "http://www.w3.org/Graphics/SVG/1.1/DTD/svg11.dtd">
<svg width="69pt" height="68pt" viewBox="0 0 69 68" version="1.1" xmlns="http://www.w3.org/2000/svg">
<g id="#ffffffff">
<path fill="#ffffff" opacity="1.00" d=" M 0.00 0.00 L 8.25 0.00 C 4.28 0.43 0.88 3.84 1.10 7.95 C 1.03 25.33 1.03 42.71 1.10 60.09 C 0.91 63.93 3.84 67.08 7.42 68.00 L 0.00 68.00 L 0.00 0.00 Z" />
</g>
<g id="#004412ff">
<path fill="#004412" opacity="1.00" d=" M 8.25 0.00 L 60.70 0.00 C 65.15 0.39 68.46 4.52 68.00 8.94 C 67.98 25.97 68.06 43.00 67.96 60.03 C 68.12 63.94 65.09 67.24 61.35 68.00 L 7.42 68.00 C 3.84 67.08 0.91 63.93 1.10 60.09 C 1.03 42.71 1.03 25.33 1.10 7.95 C 0.88 3.84 4.28 0.43 8.25 0.00 M 18.47 23.38 C 14.94 32.42 14.09 42.25 14.05 51.88 C 15.77 51.89 17.49 51.89 19.21 51.90 C 19.31 42.58 19.65 33.14 22.03 24.08 C 22.73 22.00 23.28 19.38 25.39 18.29 C 27.44 18.39 28.10 20.76 28.81 22.30 C 31.69 31.00 31.89 40.29 32.16 49.36 C 33.86 49.36 35.57 49.36 37.27 49.37 C 37.43 40.30 37.76 31.03 40.58 22.34 C 41.27 20.72 42.29 17.63 44.57 18.53 C 46.39 20.25 47.00 22.81 47.65 25.14 C 49.68 33.89 50.18 42.93 50.24 51.89 C 51.97 51.90 53.69 51.90 55.42 51.91 C 55.23 41.47 54.39 30.63 49.85 21.07 C 48.45 18.28 45.67 14.59 42.10 16.04 C 37.73 18.42 36.15 23.58 34.79 28.04 C 33.45 24.37 32.24 20.43 29.46 17.55 C 28.14 16.17 26.01 15.14 24.14 16.00 C 21.23 17.43 19.70 20.53 18.47 23.38 M 57.18 49.41 C 55.67 50.40 57.38 52.92 58.82 51.75 C 60.34 50.75 58.64 48.25 57.18 49.41 Z" />
</g>
<g id="#ffdd00ff">
<path fill="#ffdd00" opacity="1.00" d=" M 18.47 23.38 C 19.70 20.53 21.23 17.43 24.14 16.00 C 26.01 15.14 28.14 16.17 29.46 17.55 C 32.24 20.43 33.45 24.37 34.79 28.04 C 36.15 23.58 37.73 18.42 42.10 16.04 C 45.67 14.59 48.45 18.28 49.85 21.07 C 54.39 30.63 55.23 41.47 55.42 51.91 C 53.69 51.90 51.97 51.90 50.24 51.89 C 50.18 42.93 49.68 33.89 47.65 25.14 C 47.00 22.81 46.39 20.25 44.57 18.53 C 42.29 17.63 41.27 20.72 40.58 22.34 C 37.76 31.03 37.43 40.30 37.27 49.37 C 35.57 49.36 33.86 49.36 32.16 49.36 C 31.89 40.29 31.69 31.00 28.81 22.30 C 28.10 20.76 27.44 18.39 25.39 18.29 C 23.28 19.38 22.73 22.00 22.03 24.08 C 19.65 33.14 19.31 42.58 19.21 51.90 C 17.49 51.89 15.77 51.89 14.05 51.88 C 14.09 42.25 14.94 32.42 18.47 23.38 Z" />
</g>
<g id="#607d0cff">
<path fill="#607d0c" opacity="1.00" d=" M 57.18 49.41 C 58.64 48.25 60.34 50.75 58.82 51.75 C 57.38 52.92 55.67 50.40 57.18 49.41 Z" />
</g>
</svg>
